  0
SECTION
  2
HEADER
  9
$ACADVER
  1
AC1009
  9
$FILLMODE
 70
1
  9
$EXTMIN
 10
-6.3500
 20
-5.0800
 30
0.0000
  9
$EXTMAX
 10
51.4350
 20
42.5450
 30
0.0000
  0
ENDSEC
  0
SECTION
  2
TABLES
  0
TABLE
  2
LTYPE
 70
1
  0
LTYPE
  2
CONTINUOUS
 70
64
  3
Solid line
 72
65
 73
0
 40
0
  0
ENDTAB
  0
TABLE
  2
LAYER
 70
255
  0
LAYER
  2
17
 70
64
 62
82
  6
CONTINUOUS
  0
ENDTAB
  0
ENDSEC
  0
SECTION
  2
BLOCKS
  0
BLOCK
  8
0
  2
RECT
 70
64
 10
0.0000
 20
0.0000
 30
0.0000
  3
RECT
  0
SOLID
  8
0
 10
-0.5000
 20
-0.5000
 30
0.0000
 11
0.5000
 21
-0.5000
 31
0.0000
 12
-0.5000
 22
0.5000
 32
0.0000
 13
0.5000
 23
0.5000
 33
0.0000
  0
ENDBLK
  8
0
  0
BLOCK
  8
0
  2
PIE
 70
64
 10
0.0000
 20
0.0000
 30
0.0000
  3
PIE
  0
POLYLINE
  8
0
 66
1
 10
0.0000
 20
0.0000
 30
0.0000
 40
0.5000
 41
0.5000
 70
0
  0
VERTEX
  8
0
 10
0.0000
 20
-0.2500
 30
0.0000
 42
1.0000
  0
VERTEX
  8
0
 10
0.0000
 20
0.2500
 30
0.0000
 42
1.0000
  0
VERTEX
  8
0
 10
0.0000
 20
-0.2500
 30
0.0000
  0
SEQEND
  8
0
  0
ENDBLK
  8
0
  0
BLOCK
  8
0
  2
OCTAGONP
 70
64
 10
0.0000
 20
0.0000
 30
0.0000
  3
OCTAGONP
  0
POLYLINE
  8
0
 66
1
 10
0.0000
 20
0.0000
 30
0.0000
 40
0.5000
 41
0.5000
 70
0
  0
VERTEX
  8
0
 10
-0.2500
 20
-0.1036
 30
0.0000
  0
VERTEX
  8
0
 10
-0.2500
 20
0.1036
 30
0.0000
  0
VERTEX
  8
0
 10
-0.1036
 20
0.2500
 30
0.0000
  0
VERTEX
  8
0
 10
0.1036
 20
0.2500
 30
0.0000
  0
VERTEX
  8
0
 10
0.2500
 20
0.1036
 30
0.0000
  0
VERTEX
  8
0
 10
0.2500
 20
-0.1036
 30
0.0000
  0
VERTEX
  8
0
 10
0.1036
 20
-0.2500
 30
0.0000
  0
VERTEX
  8
0
 10
-0.1036
 20
-0.2500
 30
0.0000
  0
VERTEX
  8
0
 10
-0.2500
 20
-0.1036
 30
0.0000
  0
VERTEX
  8
0
 10
-0.2500
 20
0.1036
 30
0.0000
  0
SEQEND
  8
0
  0
ENDBLK
  8
0
  0
BLOCK
  8
0
  2
SQUAREP
 70
64
 10
0.0000
 20
0.0000
 30
0.0000
  3
SQUAREP
  0
SOLID
  8
0
 10
-0.5000
 20
-0.5000
 30
0.0000
 11
0.5000
 21
-0.5000
 31
0.0000
 12
-0.5000
 22
0.5000
 32
0.0000
 13
0.5000
 23
0.5000
 33
0.0000
  0
ENDBLK
  8
0
  0
BLOCK
  8
0
  2
ROUNDP
 70
64
 10
0.0000
 20
0.0000
 30
0.0000
  3
ROUNDP
  0
POLYLINE
  8
0
 66
1
 10
0.0000
 20
0.0000
 30
0.0000
 40
0.5000
 41
0.5000
 70
0
  0
VERTEX
  8
0
 10
0.0000
 20
-0.2500
 30
0.0000
 42
1.0000
  0
VERTEX
  8
0
 10
0.0000
 20
0.2500
 30
0.0000
 42
1.0000
  0
VERTEX
  8
0
 10
0.0000
 20
-0.2500
 30
0.0000
  0
SEQEND
  8
0
  0
ENDBLK
  8
0
  0
BLOCK
  8
0
  2
ANNULUSP
 70
64
 10
0.0000
 20
0.0000
 30
0.0000
  3
ANNULUSP
  0
POLYLINE
  8
0
 66
1
 10
0.0000
 20
0.0000
 30
0.0000
 40
0.5000
 41
0.5000
 70
0
  0
VERTEX
  8
0
 10
0.0000
 20
-0.2500
 30
0.0000
 42
1.0000
  0
VERTEX
  8
0
 10
0.0000
 20
0.2500
 30
0.0000
 42
1.0000
  0
VERTEX
  8
0
 10
0.0000
 20
-0.2500
 30
0.0000
  0
SEQEND
  8
0
  0
ENDBLK
  8
0
  0
BLOCK
  8
0
  2
THERMALP
 70
64
 10
0.0000
 20
0.0000
 30
0.0000
  3
THERMALP
  0
POLYLINE
  8
0
 66
1
 10
0.0000
 20
0.0000
 30
0.0000
 40
0.1000
 41
0.1000
 70
0
  0
VERTEX
  8
0
 10
-0.2379
 20
0.4500
 30
0.0000
  0
VERTEX
  8
0
 10
0.2379
 20
0.4500
 30
0.0000
  0
SEQEND
  8
0
  0
POLYLINE
  8
0
 66
1
 10
0.0000
 20
0.0000
 30
0.0000
 40
0.0500
 41
0.0500
 70
0
  0
VERTEX
  8
0
 10
0.2379
 20
0.4250
 30
0.0000
 42
1.0000
  0
VERTEX
  8
0
 10
0.2379
 20
0.4750
 30
0.0000
  0
SEQEND
  8
0
  0
POLYLINE
  8
0
 66
1
 10
0.0000
 20
0.0000
 30
0.0000
 40
0.0500
 41
0.0500
 70
0
  0
VERTEX
  8
0
 10
-0.2379
 20
0.4750
 30
0.0000
 42
1.0000
  0
VERTEX
  8
0
 10
-0.2379
 20
0.4250
 30
0.0000
  0
SEQEND
  8
0
  0
POLYLINE
  8
0
 66
1
 10
0.0000
 20
0.0000
 30
0.0000
 40
0.1000
 41
0.1000
 70
0
  0
VERTEX
  8
0
 10
0.4500
 20
0.2379
 30
0.0000
  0
VERTEX
  8
0
 10
0.4500
 20
-0.2379
 30
0.0000
  0
SEQEND
  8
0
  0
POLYLINE
  8
0
 66
1
 10
0.0000
 20
0.0000
 30
0.0000
 40
0.0500
 41
0.0500
 70
0
  0
VERTEX
  8
0
 10
0.4250
 20
-0.2379
 30
0.0000
 42
1.0000
  0
VERTEX
  8
0
 10
0.4750
 20
-0.2379
 30
0.0000
  0
SEQEND
  8
0
  0
POLYLINE
  8
0
 66
1
 10
0.0000
 20
0.0000
 30
0.0000
 40
0.0500
 41
0.0500
 70
0
  0
VERTEX
  8
0
 10
0.4750
 20
0.2379
 30
0.0000
 42
1.0000
  0
VERTEX
  8
0
 10
0.4250
 20
0.2379
 30
0.0000
  0
SEQEND
  8
0
  0
POLYLINE
  8
0
 66
1
 10
0.0000
 20
0.0000
 30
0.0000
 40
0.1000
 41
0.1000
 70
0
  0
VERTEX
  8
0
 10
0.2379
 20
-0.4500
 30
0.0000
  0
VERTEX
  8
0
 10
-0.2379
 20
-0.4500
 30
0.0000
  0
SEQEND
  8
0
  0
POLYLINE
  8
0
 66
1
 10
0.0000
 20
0.0000
 30
0.0000
 40
0.0500
 41
0.0500
 70
0
  0
VERTEX
  8
0
 10
-0.2379
 20
-0.4250
 30
0.0000
 42
1.0000
  0
VERTEX
  8
0
 10
-0.2379
 20
-0.4750
 30
0.0000
  0
SEQEND
  8
0
  0
POLYLINE
  8
0
 66
1
 10
0.0000
 20
0.0000
 30
0.0000
 40
0.0500
 41
0.0500
 70
0
  0
VERTEX
  8
0
 10
0.2379
 20
-0.4750
 30
0.0000
 42
1.0000
  0
VERTEX
  8
0
 10
0.2379
 20
-0.4250
 30
0.0000
  0
SEQEND
  8
0
  0
POLYLINE
  8
0
 66
1
 10
0.0000
 20
0.0000
 30
0.0000
 40
0.1000
 41
0.1000
 70
0
  0
VERTEX
  8
0
 10
-0.4500
 20
-0.2379
 30
0.0000
  0
VERTEX
  8
0
 10
-0.4500
 20
0.2379
 30
0.0000
  0
SEQEND
  8
0
  0
POLYLINE
  8
0
 66
1
 10
0.0000
 20
0.0000
 30
0.0000
 40
0.0500
 41
0.0500
 70
0
  0
VERTEX
  8
0
 10
-0.4250
 20
0.2379
 30
0.0000
 42
1.0000
  0
VERTEX
  8
0
 10
-0.4750
 20
0.2379
 30
0.0000
  0
SEQEND
  8
0
  0
POLYLINE
  8
0
 66
1
 10
0.0000
 20
0.0000
 30
0.0000
 40
0.0500
 41
0.0500
 70
0
  0
VERTEX
  8
0
 10
-0.4750
 20
-0.2379
 30
0.0000
 42
1.0000
  0
VERTEX
  8
0
 10
-0.4250
 20
-0.2379
 30
0.0000
  0
SEQEND
  8
0
  0
ENDBLK
  8
0
  0
BLOCK
  8
0
  2
OCTAGONV
 70
64
 10
0.0000
 20
0.0000
 30
0.0000
  3
OCTAGONV
  0
POLYLINE
  8
0
 66
1
 10
0.0000
 20
0.0000
 30
0.0000
 40
0.5000
 41
0.5000
 70
0
  0
VERTEX
  8
0
 10
-0.2500
 20
-0.1036
 30
0.0000
  0
VERTEX
  8
0
 10
-0.2500
 20
0.1036
 30
0.0000
  0
VERTEX
  8
0
 10
-0.1036
 20
0.2500
 30
0.0000
  0
VERTEX
  8
0
 10
0.1036
 20
0.2500
 30
0.0000
  0
VERTEX
  8
0
 10
0.2500
 20
0.1036
 30
0.0000
  0
VERTEX
  8
0
 10
0.2500
 20
-0.1036
 30
0.0000
  0
VERTEX
  8
0
 10
0.1036
 20
-0.2500
 30
0.0000
  0
VERTEX
  8
0
 10
-0.1036
 20
-0.2500
 30
0.0000
  0
VERTEX
  8
0
 10
-0.2500
 20
-0.1036
 30
0.0000
  0
VERTEX
  8
0
 10
-0.2500
 20
0.1036
 30
0.0000
  0
SEQEND
  8
0
  0
ENDBLK
  8
0
  0
BLOCK
  8
0
  2
SQUAREV
 70
64
 10
0.0000
 20
0.0000
 30
0.0000
  3
SQUAREV
  0
SOLID
  8
0
 10
-0.5000
 20
-0.5000
 30
0.0000
 11
0.5000
 21
-0.5000
 31
0.0000
 12
-0.5000
 22
0.5000
 32
0.0000
 13
0.5000
 23
0.5000
 33
0.0000
  0
ENDBLK
  8
0
  0
BLOCK
  8
0
  2
ROUNDV
 70
64
 10
0.0000
 20
0.0000
 30
0.0000
  3
ROUNDV
  0
POLYLINE
  8
0
 66
1
 10
0.0000
 20
0.0000
 30
0.0000
 40
0.5000
 41
0.5000
 70
0
  0
VERTEX
  8
0
 10
0.0000
 20
-0.2500
 30
0.0000
 42
1.0000
  0
VERTEX
  8
0
 10
0.0000
 20
0.2500
 30
0.0000
 42
1.0000
  0
VERTEX
  8
0
 10
0.0000
 20
-0.2500
 30
0.0000
  0
SEQEND
  8
0
  0
ENDBLK
  8
0
  0
BLOCK
  8
0
  2
ANNULUSV
 70
64
 10
0.0000
 20
0.0000
 30
0.0000
  3
ANNULUSV
  0
POLYLINE
  8
0
 66
1
 10
0.0000
 20
0.0000
 30
0.0000
 40
0.5000
 41
0.5000
 70
0
  0
VERTEX
  8
0
 10
0.0000
 20
-0.2500
 30
0.0000
 42
1.0000
  0
VERTEX
  8
0
 10
0.0000
 20
0.2500
 30
0.0000
 42
1.0000
  0
VERTEX
  8
0
 10
0.0000
 20
-0.2500
 30
0.0000
  0
SEQEND
  8
0
  0
ENDBLK
  8
0
  0
BLOCK
  8
0
  2
THERMALV
 70
64
 10
0.0000
 20
0.0000
 30
0.0000
  3
THERMALV
  0
POLYLINE
  8
0
 66
1
 10
0.0000
 20
0.0000
 30
0.0000
 40
0.1000
 41
0.1000
 70
0
  0
VERTEX
  8
0
 10
-0.2379
 20
0.4500
 30
0.0000
  0
VERTEX
  8
0
 10
0.2379
 20
0.4500
 30
0.0000
  0
SEQEND
  8
0
  0
POLYLINE
  8
0
 66
1
 10
0.0000
 20
0.0000
 30
0.0000
 40
0.0500
 41
0.0500
 70
0
  0
VERTEX
  8
0
 10
0.2379
 20
0.4250
 30
0.0000
 42
1.0000
  0
VERTEX
  8
0
 10
0.2379
 20
0.4750
 30
0.0000
  0
SEQEND
  8
0
  0
POLYLINE
  8
0
 66
1
 10
0.0000
 20
0.0000
 30
0.0000
 40
0.0500
 41
0.0500
 70
0
  0
VERTEX
  8
0
 10
-0.2379
 20
0.4750
 30
0.0000
 42
1.0000
  0
VERTEX
  8
0
 10
-0.2379
 20
0.4250
 30
0.0000
  0
SEQEND
  8
0
  0
POLYLINE
  8
0
 66
1
 10
0.0000
 20
0.0000
 30
0.0000
 40
0.1000
 41
0.1000
 70
0
  0
VERTEX
  8
0
 10
0.4500
 20
0.2379
 30
0.0000
  0
VERTEX
  8
0
 10
0.4500
 20
-0.2379
 30
0.0000
  0
SEQEND
  8
0
  0
POLYLINE
  8
0
 66
1
 10
0.0000
 20
0.0000
 30
0.0000
 40
0.0500
 41
0.0500
 70
0
  0
VERTEX
  8
0
 10
0.4250
 20
-0.2379
 30
0.0000
 42
1.0000
  0
VERTEX
  8
0
 10
0.4750
 20
-0.2379
 30
0.0000
  0
SEQEND
  8
0
  0
POLYLINE
  8
0
 66
1
 10
0.0000
 20
0.0000
 30
0.0000
 40
0.0500
 41
0.0500
 70
0
  0
VERTEX
  8
0
 10
0.4750
 20
0.2379
 30
0.0000
 42
1.0000
  0
VERTEX
  8
0
 10
0.4250
 20
0.2379
 30
0.0000
  0
SEQEND
  8
0
  0
POLYLINE
  8
0
 66
1
 10
0.0000
 20
0.0000
 30
0.0000
 40
0.1000
 41
0.1000
 70
0
  0
VERTEX
  8
0
 10
0.2379
 20
-0.4500
 30
0.0000
  0
VERTEX
  8
0
 10
-0.2379
 20
-0.4500
 30
0.0000
  0
SEQEND
  8
0
  0
POLYLINE
  8
0
 66
1
 10
0.0000
 20
0.0000
 30
0.0000
 40
0.0500
 41
0.0500
 70
0
  0
VERTEX
  8
0
 10
-0.2379
 20
-0.4250
 30
0.0000
 42
1.0000
  0
VERTEX
  8
0
 10
-0.2379
 20
-0.4750
 30
0.0000
  0
SEQEND
  8
0
  0
POLYLINE
  8
0
 66
1
 10
0.0000
 20
0.0000
 30
0.0000
 40
0.0500
 41
0.0500
 70
0
  0
VERTEX
  8
0
 10
0.2379
 20
-0.4750
 30
0.0000
 42
1.0000
  0
VERTEX
  8
0
 10
0.2379
 20
-0.4250
 30
0.0000
  0
SEQEND
  8
0
  0
POLYLINE
  8
0
 66
1
 10
0.0000
 20
0.0000
 30
0.0000
 40
0.1000
 41
0.1000
 70
0
  0
VERTEX
  8
0
 10
-0.4500
 20
-0.2379
 30
0.0000
  0
VERTEX
  8
0
 10
-0.4500
 20
0.2379
 30
0.0000
  0
SEQEND
  8
0
  0
POLYLINE
  8
0
 66
1
 10
0.0000
 20
0.0000
 30
0.0000
 40
0.0500
 41
0.0500
 70
0
  0
VERTEX
  8
0
 10
-0.4250
 20
0.2379
 30
0.0000
 42
1.0000
  0
VERTEX
  8
0
 10
-0.4750
 20
0.2379
 30
0.0000
  0
SEQEND
  8
0
  0
POLYLINE
  8
0
 66
1
 10
0.0000
 20
0.0000
 30
0.0000
 40
0.0500
 41
0.0500
 70
0
  0
VERTEX
  8
0
 10
-0.4750
 20
-0.2379
 30
0.0000
 42
1.0000
  0
VERTEX
  8
0
 10
-0.4250
 20
-0.2379
 30
0.0000
  0
SEQEND
  8
0
  0
ENDBLK
  8
0
  0
BLOCK
  8
0
  2
LONGP100
 70
64
 10
0.0000
 20
0.0000
 30
0.0000
  3
LONGP100
  0
POLYLINE
  8
0
 66
1
 10
0.0000
 20
0.0000
 30
0.0000
 40
1.0000
 41
1.0000
 70
0
  0
VERTEX
  8
0
 10
-0.5000
 20
0.0000
 30
0.0000
  0
VERTEX
  8
0
 10
0.5000
 20
0.0000
 30
0.0000
  0
SEQEND
  8
0
  0
POLYLINE
  8
0
 66
1
 10
0.0000
 20
0.0000
 30
0.0000
 40
0.5000
 41
0.5000
 70
0
  0
VERTEX
  8
0
 10
0.5000
 20
-0.2500
 30
0.0000
 42
1.0000
  0
VERTEX
  8
0
 10
0.5000
 20
0.2500
 30
0.0000
  0
SEQEND
  8
0
  0
POLYLINE
  8
0
 66
1
 10
0.0000
 20
0.0000
 30
0.0000
 40
0.5000
 41
0.5000
 70
0
  0
VERTEX
  8
0
 10
-0.5000
 20
0.2500
 30
0.0000
 42
1.0000
  0
VERTEX
  8
0
 10
-0.5000
 20
-0.2500
 30
0.0000
  0
SEQEND
  8
0
  0
ENDBLK
  8
0
  0
ENDSEC
  0
SECTION
  2
ENTITIES
  0
INSERT
  8
17
  2
SQUAREP
 10
35.5600
 20
29.2100
 30
0.0000
 41
1.6764
 42
1.6764
 43
1.0000
 50
270.0000
  0
INSERT
  8
17
  2
SQUAREP
 10
35.5600
 20
29.2100
 30
0.0000
 41
1.6764
 42
1.6764
 43
1.0000
 50
270.0000
  0
INSERT
  8
17
  2
ROUNDP
 10
33.0200
 20
29.2100
 30
0.0000
 41
1.6764
 42
1.6764
 43
1.0000
 50
270.0000
  0
INSERT
  8
17
  2
ROUNDP
 10
33.0200
 20
29.2100
 30
0.0000
 41
1.6764
 42
1.6764
 43
1.0000
 50
270.0000
  0
INSERT
  8
17
  2
ROUNDP
 10
30.4800
 20
29.2100
 30
0.0000
 41
1.6764
 42
1.6764
 43
1.0000
 50
270.0000
  0
INSERT
  8
17
  2
ROUNDP
 10
30.4800
 20
29.2100
 30
0.0000
 41
1.6764
 42
1.6764
 43
1.0000
 50
270.0000
  0
INSERT
  8
17
  2
ROUNDP
 10
27.9400
 20
29.2100
 30
0.0000
 41
1.6764
 42
1.6764
 43
1.0000
 50
270.0000
  0
INSERT
  8
17
  2
ROUNDP
 10
27.9400
 20
29.2100
 30
0.0000
 41
1.6764
 42
1.6764
 43
1.0000
 50
270.0000
  0
INSERT
  8
17
  2
ROUNDP
 10
27.9400
 20
21.5900
 30
0.0000
 41
1.6764
 42
1.6764
 43
1.0000
 50
270.0000
  0
INSERT
  8
17
  2
ROUNDP
 10
27.9400
 20
21.5900
 30
0.0000
 41
1.6764
 42
1.6764
 43
1.0000
 50
270.0000
  0
INSERT
  8
17
  2
ROUNDP
 10
30.4800
 20
21.5900
 30
0.0000
 41
1.6764
 42
1.6764
 43
1.0000
 50
270.0000
  0
INSERT
  8
17
  2
ROUNDP
 10
30.4800
 20
21.5900
 30
0.0000
 41
1.6764
 42
1.6764
 43
1.0000
 50
270.0000
  0
INSERT
  8
17
  2
ROUNDP
 10
33.0200
 20
21.5900
 30
0.0000
 41
1.6764
 42
1.6764
 43
1.0000
 50
270.0000
  0
INSERT
  8
17
  2
ROUNDP
 10
33.0200
 20
21.5900
 30
0.0000
 41
1.6764
 42
1.6764
 43
1.0000
 50
270.0000
  0
INSERT
  8
17
  2
ROUNDP
 10
35.5600
 20
21.5900
 30
0.0000
 41
1.6764
 42
1.6764
 43
1.0000
 50
270.0000
  0
INSERT
  8
17
  2
ROUNDP
 10
35.5600
 20
21.5900
 30
0.0000
 41
1.6764
 42
1.6764
 43
1.0000
 50
270.0000
  0
INSERT
  8
17
  2
OCTAGONP
 10
12.0650
 20
12.0650
 30
0.0000
 41
1.3208
 42
1.3208
 43
1.0000
 50
270.0000
  0
INSERT
  8
17
  2
OCTAGONP
 10
12.0650
 20
12.0650
 30
0.0000
 41
1.3208
 42
1.3208
 43
1.0000
 50
270.0000
  0
INSERT
  8
17
  2
OCTAGONP
 10
12.0650
 20
6.9850
 30
0.0000
 41
1.3208
 42
1.3208
 43
1.0000
 50
270.0000
  0
INSERT
  8
17
  2
OCTAGONP
 10
12.0650
 20
6.9850
 30
0.0000
 41
1.3208
 42
1.3208
 43
1.0000
 50
270.0000
  0
INSERT
  8
17
  2
ROUNDP
 10
41.9100
 20
21.5900
 30
0.0000
 41
1.9050
 42
1.9050
 43
1.0000
 50
90.0000
  0
INSERT
  8
17
  2
ROUNDP
 10
41.9100
 20
21.5900
 30
0.0000
 41
1.9050
 42
1.9050
 43
1.0000
 50
90.0000
  0
INSERT
  8
17
  2
OCTAGONP
 10
41.9100
 20
26.6700
 30
0.0000
 41
1.9050
 42
1.9050
 43
1.0000
 50
90.0000
  0
INSERT
  8
17
  2
OCTAGONP
 10
41.9100
 20
26.6700
 30
0.0000
 41
1.9050
 42
1.9050
 43
1.0000
 50
90.0000
  0
INSERT
  8
17
  2
ROUNDP
 10
8.5090
 20
16.5100
 30
0.0000
 41
1.4080
 42
1.4080
 43
1.0000
 50
0.0000
  0
INSERT
  8
17
  2
ROUNDP
 10
8.5090
 20
16.5100
 30
0.0000
 41
1.4080
 42
1.4080
 43
1.0000
 50
0.0000
  0
INSERT
  8
17
  2
ROUNDP
 10
15.6210
 20
16.5100
 30
0.0000
 41
1.4080
 42
1.4080
 43
1.0000
 50
0.0000
  0
INSERT
  8
17
  2
ROUNDP
 10
15.6210
 20
16.5100
 30
0.0000
 41
1.4080
 42
1.4080
 43
1.0000
 50
0.0000
  0
INSERT
  8
17
  2
ROUNDP
 10
8.5090
 20
24.1300
 30
0.0000
 41
1.4080
 42
1.4080
 43
1.0000
 50
0.0000
  0
INSERT
  8
17
  2
ROUNDP
 10
8.5090
 20
24.1300
 30
0.0000
 41
1.4080
 42
1.4080
 43
1.0000
 50
0.0000
  0
INSERT
  8
17
  2
ROUNDP
 10
15.6210
 20
24.1300
 30
0.0000
 41
1.4080
 42
1.4080
 43
1.0000
 50
0.0000
  0
INSERT
  8
17
  2
ROUNDP
 10
15.6210
 20
24.1300
 30
0.0000
 41
1.4080
 42
1.4080
 43
1.0000
 50
0.0000
  0
INSERT
  8
17
  2
LONGP100
 10
5.7150
 20
5.7150
 30
0.0000
 41
1.3208
 42
1.3208
 43
1.0000
 50
270.0000
  0
INSERT
  8
17
  2
LONGP100
 10
5.7150
 20
5.7150
 30
0.0000
 41
1.3208
 42
1.3208
 43
1.0000
 50
270.0000
  0
INSERT
  8
17
  2
LONGP100
 10
5.7150
 20
13.3350
 30
0.0000
 41
1.3208
 42
1.3208
 43
1.0000
 50
270.0000
  0
INSERT
  8
17
  2
LONGP100
 10
5.7150
 20
13.3350
 30
0.0000
 41
1.3208
 42
1.3208
 43
1.0000
 50
270.0000
  0
INSERT
  8
17
  2
ROUNDP
 10
35.5600
 20
33.6550
 30
0.0000
 41
1.7780
 42
1.7780
 43
1.0000
 50
270.0000
  0
INSERT
  8
17
  2
ROUNDP
 10
35.5600
 20
33.6550
 30
0.0000
 41
1.7780
 42
1.7780
 43
1.0000
 50
270.0000
  0
INSERT
  8
17
  2
ROUNDP
 10
33.0200
 20
33.6550
 30
0.0000
 41
1.7780
 42
1.7780
 43
1.0000
 50
270.0000
  0
INSERT
  8
17
  2
ROUNDP
 10
33.0200
 20
33.6550
 30
0.0000
 41
1.7780
 42
1.7780
 43
1.0000
 50
270.0000
  0
INSERT
  8
17
  2
ROUNDP
 10
30.4800
 20
33.6550
 30
0.0000
 41
1.7780
 42
1.7780
 43
1.0000
 50
270.0000
  0
INSERT
  8
17
  2
ROUNDP
 10
30.4800
 20
33.6550
 30
0.0000
 41
1.7780
 42
1.7780
 43
1.0000
 50
270.0000
  0
INSERT
  8
17
  2
ROUNDP
 10
27.9400
 20
33.6550
 30
0.0000
 41
1.7780
 42
1.7780
 43
1.0000
 50
270.0000
  0
INSERT
  8
17
  2
ROUNDP
 10
27.9400
 20
33.6550
 30
0.0000
 41
1.7780
 42
1.7780
 43
1.0000
 50
270.0000
  0
INSERT
  8
17
  2
ROUNDP
 10
27.9400
 20
3.8100
 30
0.0000
 41
1.7780
 42
1.7780
 43
1.0000
 50
90.0000
  0
INSERT
  8
17
  2
ROUNDP
 10
27.9400
 20
3.8100
 30
0.0000
 41
1.7780
 42
1.7780
 43
1.0000
 50
90.0000
  0
INSERT
  8
17
  2
ROUNDP
 10
30.4800
 20
3.8100
 30
0.0000
 41
1.7780
 42
1.7780
 43
1.0000
 50
90.0000
  0
INSERT
  8
17
  2
ROUNDP
 10
30.4800
 20
3.8100
 30
0.0000
 41
1.7780
 42
1.7780
 43
1.0000
 50
90.0000
  0
INSERT
  8
17
  2
ROUNDP
 10
33.0200
 20
3.8100
 30
0.0000
 41
1.7780
 42
1.7780
 43
1.0000
 50
90.0000
  0
INSERT
  8
17
  2
ROUNDP
 10
33.0200
 20
3.8100
 30
0.0000
 41
1.7780
 42
1.7780
 43
1.0000
 50
90.0000
  0
INSERT
  8
17
  2
ROUNDP
 10
35.5600
 20
3.8100
 30
0.0000
 41
1.7780
 42
1.7780
 43
1.0000
 50
90.0000
  0
INSERT
  8
17
  2
ROUNDP
 10
35.5600
 20
3.8100
 30
0.0000
 41
1.7780
 42
1.7780
 43
1.0000
 50
90.0000
  0
INSERT
  8
17
  2
OCTAGONP
 10
19.0500
 20
5.7150
 30
0.0000
 41
1.3208
 42
1.3208
 43
1.0000
 50
90.0000
  0
INSERT
  8
17
  2
OCTAGONP
 10
19.0500
 20
5.7150
 30
0.0000
 41
1.3208
 42
1.3208
 43
1.0000
 50
90.0000
  0
INSERT
  8
17
  2
OCTAGONP
 10
19.0500
 20
8.2550
 30
0.0000
 41
1.3208
 42
1.3208
 43
1.0000
 50
90.0000
  0
INSERT
  8
17
  2
OCTAGONP
 10
19.0500
 20
8.2550
 30
0.0000
 41
1.3208
 42
1.3208
 43
1.0000
 50
90.0000
  0
INSERT
  8
17
  2
OCTAGONP
 10
41.9100
 20
17.1450
 30
0.0000
 41
1.3208
 42
1.3208
 43
1.0000
 50
270.0000
  0
INSERT
  8
17
  2
OCTAGONP
 10
41.9100
 20
17.1450
 30
0.0000
 41
1.3208
 42
1.3208
 43
1.0000
 50
270.0000
  0
INSERT
  8
17
  2
OCTAGONP
 10
41.9100
 20
14.6050
 30
0.0000
 41
1.3208
 42
1.3208
 43
1.0000
 50
270.0000
  0
INSERT
  8
17
  2
OCTAGONP
 10
41.9100
 20
14.6050
 30
0.0000
 41
1.3208
 42
1.3208
 43
1.0000
 50
270.0000
  0
INSERT
  8
17
  2
OCTAGONP
 10
8.8900
 20
20.3200
 30
0.0000
 41
1.3208
 42
1.3208
 43
1.0000
 50
0.0000
  0
INSERT
  8
17
  2
OCTAGONP
 10
8.8900
 20
20.3200
 30
0.0000
 41
1.3208
 42
1.3208
 43
1.0000
 50
0.0000
  0
INSERT
  8
17
  2
OCTAGONP
 10
21.5900
 20
20.3200
 30
0.0000
 41
1.3208
 42
1.3208
 43
1.0000
 50
0.0000
  0
INSERT
  8
17
  2
OCTAGONP
 10
21.5900
 20
20.3200
 30
0.0000
 41
1.3208
 42
1.3208
 43
1.0000
 50
0.0000
  0
INSERT
  8
17
  2
OCTAGONP
 10
24.1300
 20
17.1450
 30
0.0000
 41
1.3208
 42
1.3208
 43
1.0000
 50
0.0000
  0
INSERT
  8
17
  2
OCTAGONP
 10
24.1300
 20
17.1450
 30
0.0000
 41
1.3208
 42
1.3208
 43
1.0000
 50
0.0000
  0
INSERT
  8
17
  2
OCTAGONP
 10
36.8300
 20
17.1450
 30
0.0000
 41
1.3208
 42
1.3208
 43
1.0000
 50
0.0000
  0
INSERT
  8
17
  2
OCTAGONP
 10
36.8300
 20
17.1450
 30
0.0000
 41
1.3208
 42
1.3208
 43
1.0000
 50
0.0000
  0
INSERT
  8
17
  2
OCTAGONP
 10
24.1300
 20
8.2550
 30
0.0000
 41
1.3208
 42
1.3208
 43
1.0000
 50
0.0000
  0
INSERT
  8
17
  2
OCTAGONP
 10
24.1300
 20
8.2550
 30
0.0000
 41
1.3208
 42
1.3208
 43
1.0000
 50
0.0000
  0
INSERT
  8
17
  2
OCTAGONP
 10
36.8300
 20
8.2550
 30
0.0000
 41
1.3208
 42
1.3208
 43
1.0000
 50
0.0000
  0
INSERT
  8
17
  2
OCTAGONP
 10
36.8300
 20
8.2550
 30
0.0000
 41
1.3208
 42
1.3208
 43
1.0000
 50
0.0000
  0
INSERT
  8
17
  2
OCTAGONP
 10
24.1300
 20
12.7000
 30
0.0000
 41
1.3208
 42
1.3208
 43
1.0000
 50
0.0000
  0
INSERT
  8
17
  2
OCTAGONP
 10
24.1300
 20
12.7000
 30
0.0000
 41
1.3208
 42
1.3208
 43
1.0000
 50
0.0000
  0
INSERT
  8
17
  2
OCTAGONP
 10
36.8300
 20
12.7000
 30
0.0000
 41
1.3208
 42
1.3208
 43
1.0000
 50
0.0000
  0
INSERT
  8
17
  2
OCTAGONP
 10
36.8300
 20
12.7000
 30
0.0000
 41
1.3208
 42
1.3208
 43
1.0000
 50
0.0000
  0
INSERT
  8
17
  2
OCTAGONP
 10
8.8900
 20
27.9400
 30
0.0000
 41
1.3208
 42
1.3208
 43
1.0000
 50
0.0000
  0
INSERT
  8
17
  2
OCTAGONP
 10
8.8900
 20
27.9400
 30
0.0000
 41
1.3208
 42
1.3208
 43
1.0000
 50
0.0000
  0
INSERT
  8
17
  2
OCTAGONP
 10
21.5900
 20
27.9400
 30
0.0000
 41
1.3208
 42
1.3208
 43
1.0000
 50
0.0000
  0
INSERT
  8
17
  2
OCTAGONP
 10
21.5900
 20
27.9400
 30
0.0000
 41
1.3208
 42
1.3208
 43
1.0000
 50
0.0000
  0
INSERT
  8
17
  2
ROUNDP
 10
2.5400
 20
24.1300
 30
0.0000
 41
1.7780
 42
1.7780
 43
1.0000
 50
0.0000
  0
INSERT
  8
17
  2
ROUNDP
 10
2.5400
 20
24.1300
 30
0.0000
 41
1.7780
 42
1.7780
 43
1.0000
 50
0.0000
  0
INSERT
  8
17
  2
ROUNDP
 10
2.5400
 20
21.5900
 30
0.0000
 41
1.7780
 42
1.7780
 43
1.0000
 50
0.0000
  0
INSERT
  8
17
  2
ROUNDP
 10
2.5400
 20
21.5900
 30
0.0000
 41
1.7780
 42
1.7780
 43
1.0000
 50
0.0000
  0
INSERT
  8
17
  2
ROUNDP
 10
2.5400
 20
19.0500
 30
0.0000
 41
1.7780
 42
1.7780
 43
1.0000
 50
0.0000
  0
INSERT
  8
17
  2
ROUNDP
 10
2.5400
 20
19.0500
 30
0.0000
 41
1.7780
 42
1.7780
 43
1.0000
 50
0.0000
  0
INSERT
  8
17
  2
ROUNDP
 10
2.5400
 20
16.5100
 30
0.0000
 41
1.7780
 42
1.7780
 43
1.0000
 50
0.0000
  0
INSERT
  8
17
  2
ROUNDP
 10
2.5400
 20
16.5100
 30
0.0000
 41
1.7780
 42
1.7780
 43
1.0000
 50
0.0000
  0
ENDSEC
  0
EOF
